


The.Looney.Looney.Looney.Bugs.Bunny.Movie.1981 [multi.language]  H264_MarGelaTu.mp4 
-----------------------------------------------------------------------------------
 
http://www.imdb.com/title/tt0082679/

Source: DVD.5
      Format : MPEG-4
      Format profile : Base Media / Version 2
      Codec ID : mp42
      File size : 877 MiB
      Duration : 1h 16mn
      Overall bit rate : 1 607 Kbps
   
   Video #1
      ID : 1
      Format : AVC
      Format/Info : Advanced Video Codec
      Format profile : High@L3.0
      Format settings, CABAC : Yes
      Format settings, ReFrames : 5 frames
      Codec ID : avc1
      Codec ID/Info : Advanced Video Coding
      Duration : 1h 16mn
      Bit rate mode : Variable
      Bit rate : 1 068 Kbps
      Width : 720 pixels
      Height : 576 pixels
      Display aspect ratio : 4:3
      Original display aspect ratio : 4:3
      Frame rate mode : Constant
      Frame rate : 25.000 fps
      Standard : PAL
      Resolution : 24 bits
      Colorimetry : 4:2:0
      Scan type : Progressive
      Bits/(Pixel*Frame) : 0.103
      Stream size : 583 MiB (66%)
      Writing library : x264 core 79
    
   Audio #2
      ID : 2
      Format : AAC
      Format/Info : Advanced Audio Codec
      Format version : Version 4
      Format profile : LC
      Format settings, SBR : No
      Format settings, PS : Yes
      Codec ID : 40
      Duration : 1h 16mn
      Bit rate mode : Variable
      Bit rate : 82.7 Kbps
      Maximum bit rate : 106 Kbps
      Channel(s) : 2 channels
      Channel positions : Front: L R
      Sampling rate : 48.0 KHz
      Resolution : 16 bits
      Stream size : 45.1 MiB (5%)
      Language : English, Czech, Hungarian, Romanian
     -----------------------------------------------------------------
      Enjoy and send, send send ...